ffmpeg started on 2026-01-16 at 16:01:30
Report written to "D:\Convert\FFMetrics\reports\psnr_report-6.txt"
Log level: 32
Command line:
ffmpeg -hide_banner -nostdin -r 24000/1001 -i "F:\\Convert\\files\\[DC] Make Heroine ga Oosugiru - 07_Telegram_HEVC(145).mkv" -r 24000/1001 -i "F:\\Convert\\files\\[DC] Make Heroine ga Oosugiru - 07_Telegram.mp4" -lavfi "[0:v]settb=AVTB,setpts=PTS-STARTPTS,format=pix_fmts=yuv420p10le,fps=24000/1001,scale=1920:1080:flags=lanczos:param0=3:out_range=limited:out_color_matrix=bt709:out_chroma_loc=left,setsar=1/1,setdar=(1920/1080)*(1/1),colorspace=format=yuv420p10:range=tv:primaries=bt709:trc=bt709:space=bt709:fast=0[main];[1:v]settb=AVTB,setpts=PTS-STARTPTS,format=pix_fmts=yuv420p,fps=24000/1001,scale=1920:1080:flags=lanczos:param0=3:out_range=limited:out_color_matrix=bt709:out_chroma_loc=left,setsar=1.000,setdar=1.778,colorspace=format=yuv420p:range=tv:primaries=bt709:trc=bt709:space=bt709:fast=0[ref];[main][ref]psnr=eof_action=endall:stats_file='D\\:/Convert/FFMetrics/logs/psnr_logfile-6.txt'" -f null -
Input #0, matroska,webm, from 'F:\Convert\files\[DC] Make Heroine ga Oosugiru - 07_Telegram_HEVC(145).mkv':
  Metadata:
    COMPATIBLE_BRANDS: isomiso2avc1mp41
    MAJOR_BRAND     : isom
    MINOR_VERSION   : 512
    ENCODER         : Lavf61.7.100
  Duration: 00:24:06.79, start: -0.021000, bitrate: 989 kb/s
  Stream #0:0: Video: hevc (Main 10), yuv420p10le(tv, bt709, progressive), 1920x1080 [SAR 1:1 DAR 16:9], 23.98 fps, 23.98 tbr, 1k tbn (default)
      Metadata:
        HANDLER_NAME    : VideoHandler
        VENDOR_ID       : [0][0][0][0]
        ENCODER         : Lavc61.19.100 libx265
        BPS             : 791890
        DURATION        : 00:24:06.569708333
        NUMBER_OF_FRAMES: 34683
        NUMBER_OF_BYTES : 143190599
        _STATISTICS_WRITING_APP: mkvpropedit v94.0 ('Initiate') 64-bit
        _STATISTICS_WRITING_DATE_UTC: 2026-01-16 12:36:58
        _STATISTICS_TAGS: BPS DURATION NUMBER_OF_FRAMES NUMBER_OF_BYTES
  Stream #0:1: Audio: aac (LC), 48000 Hz, stereo, fltp (default)
      Metadata:
        HANDLER_NAME    : SoundHandler
        VENDOR_ID       : [0][0][0][0]
        ENCODER         : Lavc61.19.100 aac
        BPS             : 193194
        DURATION        : 00:24:06.784000000
        NUMBER_OF_FRAMES: 67819
        NUMBER_OF_BYTES : 34938755
        _STATISTICS_WRITING_APP: mkvpropedit v94.0 ('Initiate') 64-bit
        _STATISTICS_WRITING_DATE_UTC: 2026-01-16 12:36:58
        _STATISTICS_TAGS: BPS DURATION NUMBER_OF_FRAMES NUMBER_OF_BYTES
Input #1, mov,mp4,m4a,3gp,3g2,mj2, from 'F:\Convert\files\[DC] Make Heroine ga Oosugiru - 07_Telegram.mp4':
  Metadata:
    major_brand     : isom
    minor_version   : 512
    compatible_brands: isomiso2avc1mp41
    encoder         : Lavf60.16.100
  Duration: 00:24:06.74, start: 0.000000, bitrate: 3764 kb/s
  Stream #1:0[0x1](und): Video: h264 (High) (avc1 / 0x31637661), yuv420p(tv, bt709, progressive), 1920x1080 [SAR 1:1 DAR 16:9], 3616 kb/s, 23.98 fps, 23.98 tbr, 24k tbn (default)
      Metadata:
        handler_name    : VideoHandler
        vendor_id       : [0][0][0][0]
        encoder         : Lavc60.31.102 h264_qsv
  Stream #1:1[0x2](und): Audio: aac (HE-AACv2) (mp4a / 0x6134706D), 48000 Hz, stereo, fltp, 144 kb/s (default)
      Metadata:
        handler_name    : SoundHandler
        vendor_id       : [0][0][0][0]
Stream mapping:
  Stream #0:0 (hevc) -> settb:default
  Stream #1:0 (h264) -> settb:default
  psnr:default -> Stream #0:0 (wrapped_avframe)
  Stream #0:1 -> #0:1 (aac (native) -> pcm_s16le (native))
Output #0, null, to 'pipe:':
  Metadata:
    COMPATIBLE_BRANDS: isomiso2avc1mp41
    MAJOR_BRAND     : isom
    MINOR_VERSION   : 512
    encoder         : Lavf61.7.100
  Stream #0:0: Video: wrapped_avframe, yuv420p10le(tv, bt709, progressive), 1920x1080 [SAR 1:1 DAR 16:9], q=2-31, 200 kb/s, 23.98 fps, 23.98 tbn
      Metadata:
        encoder         : Lavc61.19.100 wrapped_avframe
  Stream #0:1: Audio: pcm_s16le, 48000 Hz, stereo, s16, 1536 kb/s (default)
      Metadata:
        HANDLER_NAME    : SoundHandler
        VENDOR_ID       : [0][0][0][0]
        _STATISTICS_TAGS: BPS DURATION NUMBER_OF_FRAMES NUMBER_OF_BYTES
        BPS             : 193194
        DURATION        : 00:24:06.784000000
        NUMBER_OF_FRAMES: 67819
        NUMBER_OF_BYTES : 34938755
        _STATISTICS_WRITING_APP: mkvpropedit v94.0 ('Initiate') 64-bit
        _STATISTICS_WRITING_DATE_UTC: 2026-01-16 12:36:58
        encoder         : Lavc61.19.100 pcm_s16le
frame=  128 fps=0.0 q=-0.0 size=N/A time=00:00:05.33 bitrate=N/A speed=10.3x    frame=  325 fps=316 q=-0.0 size=N/A time=00:00:13.55 bitrate=N/A speed=13.2x    frame=  523 fps=340 q=-0.0 size=N/A time=00:00:21.81 bitrate=N/A speed=14.2x    frame=  729 fps=353 q=-0.0 size=N/A time=00:00:30.40 bitrate=N/A speed=14.7x    frame=  910 fps=351 q=-0.0 size=N/A time=00:00:37.95 bitrate=N/A speed=14.6x    frame= 1062 fps=342 q=-0.0 size=N/A time=00:00:44.29 bitrate=N/A speed=14.3x    frame= 1218 fps=337 q=-0.0 size=N/A time=00:00:50.80 bitrate=N/A speed=  14x    frame= 1386 fps=336 q=-0.0 size=N/A time=00:00:57.80 bitrate=N/A speed=  14x    frame= 1540 fps=331 q=-0.0 size=N/A time=00:01:04.23 bitrate=N/A speed=13.8x    frame= 1691 fps=327 q=-0.0 size=N/A time=00:01:10.52 bitrate=N/A speed=13.6x    frame= 1857 fps=327 q=-0.0 size=N/A time=00:01:17.45 bitrate=N/A speed=13.6x    frame= 2031 fps=328 q=-0.0 size=N/A time=00:01:24.70 bitrate=N/A speed=13.7x    frame= 2138 fps=318 q=-0.0 size=N/A time=00:01:29.17 bitrate=N/A speed=13.3x    frame= 2287 fps=316 q=-0.0 size=N/A time=00:01:35.38 bitrate=N/A speed=13.2x    frame= 2434 fps=314 q=-0.0 size=N/A time=00:01:41.51 bitrate=N/A speed=13.1x    frame= 2566 fps=311 q=-0.0 size=N/A time=00:01:47.02 bitrate=N/A speed=  13x    frame= 2746 fps=313 q=-0.0 size=N/A time=00:01:54.53 bitrate=N/A speed=  13x    frame= 2918 fps=314 q=-0.0 size=N/A time=00:02:01.70 bitrate=N/A speed=13.1x    frame= 3117 fps=318 q=-0.0 size=N/A time=00:02:10.00 bitrate=N/A speed=13.3x    frame= 3312 fps=321 q=-0.0 size=N/A time=00:02:18.13 bitrate=N/A speed=13.4x    frame= 3521 fps=325 q=-0.0 size=N/A time=00:02:26.85 bitrate=N/A speed=13.5x    frame= 3722 fps=327 q=-0.0 size=N/A time=00:02:35.23 bitrate=N/A speed=13.7x    frame= 3923 fps=330 q=-0.0 size=N/A time=00:02:43.62 bitrate=N/A speed=13.8x    frame= 4117 fps=332 q=-0.0 size=N/A time=00:02:51.71 bitrate=N/A speed=13.9x    frame= 4322 fps=334 q=-0.0 size=N/A time=00:03:00.26 bitrate=N/A speed=13.9x    frame= 4516 fps=336 q=-0.0 size=N/A time=00:03:08.35 bitrate=N/A speed=  14x    frame= 4704 fps=337 q=-0.0 size=N/A time=00:03:16.19 bitrate=N/A speed=14.1x    frame= 4905 fps=339 q=-0.0 size=N/A time=00:03:24.57 bitrate=N/A speed=14.1x    frame= 5111 fps=341 q=-0.0 size=N/A time=00:03:33.17 bitrate=N/A speed=14.2x    frame= 5305 fps=342 q=-0.0 size=N/A time=00:03:41.26 bitrate=N/A speed=14.3x    frame= 5499 fps=344 q=-0.0 size=N/A time=00:03:49.35 bitrate=N/A speed=14.3x    frame= 5700 fps=345 q=-0.0 size=N/A time=00:03:57.73 bitrate=N/A speed=14.4x    frame= 5899 fps=346 q=-0.0 size=N/A time=00:04:06.03 bitrate=N/A speed=14.4x    frame= 6098 fps=347 q=-0.0 size=N/A time=00:04:14.33 bitrate=N/A speed=14.5x    frame= 6297 fps=348 q=-0.0 size=N/A time=00:04:22.63 bitrate=N/A speed=14.5x    frame= 6494 fps=349 q=-0.0 size=N/A time=00:04:30.85 bitrate=N/A speed=14.6x    frame= 6697 fps=350 q=-0.0 size=N/A time=00:04:39.32 bitrate=N/A speed=14.6x    frame= 6891 fps=351 q=-0.0 size=N/A time=00:04:47.41 bitrate=N/A speed=14.6x    frame= 7089 fps=352 q=-0.0 size=N/A time=00:04:55.67 bitrate=N/A speed=14.7x    frame= 7283 fps=353 q=-0.0 size=N/A time=00:05:03.76 bitrate=N/A speed=14.7x    frame= 7480 fps=353 q=-0.0 size=N/A time=00:05:11.97 bitrate=N/A speed=14.7x    frame= 7665 fps=354 q=-0.0 size=N/A time=00:05:19.69 bitrate=N/A speed=14.7x    frame= 7852 fps=354 q=-0.0 size=N/A time=00:05:27.49 bitrate=N/A speed=14.8x    frame= 8049 fps=354 q=-0.0 size=N/A time=00:05:35.71 bitrate=N/A speed=14.8x    frame= 8247 fps=355 q=-0.0 size=N/A time=00:05:43.96 bitrate=N/A speed=14.8x    frame= 8440 fps=355 q=-0.0 size=N/A time=00:05:52.01 bitrate=N/A speed=14.8x    frame= 8636 fps=356 q=-0.0 size=N/A time=00:06:00.19 bitrate=N/A speed=14.8x    frame= 8830 fps=356 q=-0.0 size=N/A time=00:06:08.28 bitrate=N/A speed=14.9x    frame= 9032 fps=357 q=-0.0 size=N/A time=00:06:16.70 bitrate=N/A speed=14.9x    frame= 9228 fps=358 q=-0.0 size=N/A time=00:06:24.88 bitrate=N/A speed=14.9x    frame= 9424 fps=358 q=-0.0 size=N/A time=00:06:33.05 bitrate=N/A speed=14.9x    frame= 9623 fps=359 q=-0.0 size=N/A time=00:06:41.35 bitrate=N/A speed=  15x    frame= 9818 fps=359 q=-0.0 size=N/A time=00:06:49.49 bitrate=N/A speed=  15x    frame=10017 fps=359 q=-0.0 size=N/A time=00:06:57.79 bitrate=N/A speed=  15x    frame=10205 fps=360 q=-0.0 size=N/A time=00:07:05.63 bitrate=N/A speed=  15x    frame=10399 fps=360 q=-0.0 size=N/A time=00:07:13.72 bitrate=N/A speed=  15x    frame=10597 fps=360 q=-0.0 size=N/A time=00:07:21.98 bitrate=N/A speed=  15x    frame=10786 fps=360 q=-0.0 size=N/A time=00:07:29.86 bitrate=N/A speed=  15x    frame=10983 fps=361 q=-0.0 size=N/A time=00:07:38.08 bitrate=N/A speed=  15x    frame=11168 fps=361 q=-0.0 size=N/A time=00:07:45.79 bitrate=N/A speed=  15x    frame=11371 fps=361 q=-0.0 size=N/A time=00:07:54.26 bitrate=N/A speed=15.1x    frame=11566 fps=362 q=-0.0 size=N/A time=00:08:02.39 bitrate=N/A speed=15.1x    frame=11759 fps=362 q=-0.0 size=N/A time=00:08:10.44 bitrate=N/A speed=15.1x    frame=11952 fps=362 q=-0.0 size=N/A time=00:08:18.49 bitrate=N/A speed=15.1x    frame=12156 fps=362 q=-0.0 size=N/A time=00:08:27.00 bitrate=N/A speed=15.1x    frame=12349 fps=363 q=-0.0 size=N/A time=00:08:35.05 bitrate=N/A speed=15.1x    frame=12548 fps=363 q=-0.0 size=N/A time=00:08:43.35 bitrate=N/A speed=15.1x    frame=12739 fps=363 q=-0.0 size=N/A time=00:08:51.32 bitrate=N/A speed=15.1x    frame=12945 fps=364 q=-0.0 size=N/A time=00:08:59.91 bitrate=N/A speed=15.2x    frame=13139 fps=364 q=-0.0 size=N/A time=00:09:08.00 bitrate=N/A speed=15.2x    frame=13325 fps=364 q=-0.0 size=N/A time=00:09:15.76 bitrate=N/A speed=15.2x    frame=13521 fps=364 q=-0.0 size=N/A time=00:09:23.93 bitrate=N/A speed=15.2x    frame=13722 fps=364 q=-0.0 size=N/A time=00:09:32.32 bitrate=N/A speed=15.2x    frame=13920 fps=365 q=-0.0 size=N/A time=00:09:40.58 bitrate=N/A speed=15.2x    frame=14104 fps=364 q=-0.0 size=N/A time=00:09:48.25 bitrate=N/A speed=15.2x    frame=14286 fps=364 q=-0.0 size=N/A time=00:09:55.84 bitrate=N/A speed=15.2x    frame=14492 fps=365 q=-0.0 size=N/A time=00:10:04.43 bitrate=N/A speed=15.2x    frame=14682 fps=365 q=-0.0 size=N/A time=00:10:12.36 bitrate=N/A speed=15.2x    frame=14877 fps=365 q=-0.0 size=N/A time=00:10:20.49 bitrate=N/A speed=15.2x    frame=15070 fps=365 q=-0.0 size=N/A time=00:10:28.54 bitrate=N/A speed=15.2x    frame=15241 fps=365 q=-0.0 size=N/A time=00:10:35.67 bitrate=N/A speed=15.2x    frame=15443 fps=365 q=-0.0 size=N/A time=00:10:44.10 bitrate=N/A speed=15.2x    frame=15632 fps=365 q=-0.0 size=N/A time=00:10:51.98 bitrate=N/A speed=15.2x    frame=15831 fps=365 q=-0.0 size=N/A time=00:11:00.28 bitrate=N/A speed=15.2x    frame=16027 fps=365 q=-0.0 size=N/A time=00:11:08.45 bitrate=N/A speed=15.2x    frame=16228 fps=366 q=-0.0 size=N/A time=00:11:16.84 bitrate=N/A speed=15.2x    frame=16417 fps=366 q=-0.0 size=N/A time=00:11:24.72 bitrate=N/A speed=15.3x    frame=16607 fps=366 q=-0.0 size=N/A time=00:11:32.65 bitrate=N/A speed=15.3x    frame=16815 fps=366 q=-0.0 size=N/A time=00:11:41.32 bitrate=N/A speed=15.3x    frame=17015 fps=366 q=-0.0 size=N/A time=00:11:49.66 bitrate=N/A speed=15.3x    frame=17213 fps=367 q=-0.0 size=N/A time=00:11:57.92 bitrate=N/A speed=15.3x    frame=17407 fps=367 q=-0.0 size=N/A time=00:12:06.01 bitrate=N/A speed=15.3x    frame=17600 fps=367 q=-0.0 size=N/A time=00:12:14.06 bitrate=N/A speed=15.3x    frame=17796 fps=367 q=-0.0 size=N/A time=00:12:22.24 bitrate=N/A speed=15.3x    frame=17996 fps=367 q=-0.0 size=N/A time=00:12:30.58 bitrate=N/A speed=15.3x    frame=18186 fps=367 q=-0.0 size=N/A time=00:12:38.50 bitrate=N/A speed=15.3x    frame=18376 fps=367 q=-0.0 size=N/A time=00:12:46.43 bitrate=N/A speed=15.3x    frame=18573 fps=367 q=-0.0 size=N/A time=00:12:54.64 bitrate=N/A speed=15.3x    frame=18767 fps=367 q=-0.0 size=N/A time=00:13:02.74 bitrate=N/A speed=15.3x    frame=18965 fps=368 q=-0.0 size=N/A time=00:13:10.99 bitrate=N/A speed=15.3x    frame=19165 fps=368 q=-0.0 size=N/A time=00:13:19.34 bitrate=N/A speed=15.3x    frame=19365 fps=368 q=-0.0 size=N/A time=00:13:27.68 bitrate=N/A speed=15.3x    frame=19556 fps=368 q=-0.0 size=N/A time=00:13:35.64 bitrate=N/A speed=15.3x    frame=19755 fps=368 q=-0.0 size=N/A time=00:13:43.94 bitrate=N/A speed=15.4x    frame=19960 fps=368 q=-0.0 size=N/A time=00:13:52.49 bitrate=N/A speed=15.4x    frame=20149 fps=368 q=-0.0 size=N/A time=00:14:00.38 bitrate=N/A speed=15.4x    frame=20349 fps=369 q=-0.0 size=N/A time=00:14:08.72 bitrate=N/A speed=15.4x    frame=20535 fps=369 q=-0.0 size=N/A time=00:14:16.48 bitrate=N/A speed=15.4x    frame=20711 fps=368 q=-0.0 size=N/A time=00:14:23.82 bitrate=N/A speed=15.4x    frame=20914 fps=368 q=-0.0 size=N/A time=00:14:32.28 bitrate=N/A speed=15.4x    frame=21109 fps=369 q=-0.0 size=N/A time=00:14:40.42 bitrate=N/A speed=15.4x    frame=21304 fps=369 q=-0.0 size=N/A time=00:14:48.55 bitrate=N/A speed=15.4x    frame=21507 fps=369 q=-0.0 size=N/A time=00:14:57.02 bitrate=N/A speed=15.4x    frame=21697 fps=369 q=-0.0 size=N/A time=00:15:04.94 bitrate=N/A speed=15.4x    frame=21896 fps=369 q=-0.0 size=N/A time=00:15:13.24 bitrate=N/A speed=15.4x    frame=22090 fps=369 q=-0.0 size=N/A time=00:15:21.33 bitrate=N/A speed=15.4x    frame=22293 fps=369 q=-0.0 size=N/A time=00:15:29.80 bitrate=N/A speed=15.4x    frame=22492 fps=369 q=-0.0 size=N/A time=00:15:38.10 bitrate=N/A speed=15.4x    frame=22686 fps=369 q=-0.0 size=N/A time=00:15:46.19 bitrate=N/A speed=15.4x    frame=22873 fps=369 q=-0.0 size=N/A time=00:15:53.99 bitrate=N/A speed=15.4x    frame=23075 fps=370 q=-0.0 size=N/A time=00:16:02.41 bitrate=N/A speed=15.4x    frame=23270 fps=370 q=-0.0 size=N/A time=00:16:10.55 bitrate=N/A speed=15.4x    frame=23470 fps=370 q=-0.0 size=N/A time=00:16:18.89 bitrate=N/A speed=15.4x    frame=23664 fps=370 q=-0.0 size=N/A time=00:16:26.98 bitrate=N/A speed=15.4x    frame=23856 fps=370 q=-0.0 size=N/A time=00:16:34.99 bitrate=N/A speed=15.4x    frame=24059 fps=370 q=-0.0 size=N/A time=00:16:43.46 bitrate=N/A speed=15.4x    frame=24245 fps=370 q=-0.0 size=N/A time=00:16:51.21 bitrate=N/A speed=15.4x    frame=24433 fps=370 q=-0.0 size=N/A time=00:16:59.05 bitrate=N/A speed=15.4x    frame=24630 fps=370 q=-0.0 size=N/A time=00:17:07.27 bitrate=N/A speed=15.4x    frame=24822 fps=370 q=-0.0 size=N/A time=00:17:15.28 bitrate=N/A speed=15.4x    frame=25011 fps=370 q=-0.0 size=N/A time=00:17:23.16 bitrate=N/A speed=15.4x    frame=25201 fps=370 q=-0.0 size=N/A time=00:17:31.09 bitrate=N/A speed=15.4x    frame=25402 fps=370 q=-0.0 size=N/A time=00:17:39.47 bitrate=N/A speed=15.4x    frame=25597 fps=370 q=-0.0 size=N/A time=00:17:47.60 bitrate=N/A speed=15.4x    frame=25785 fps=370 q=-0.0 size=N/A time=00:17:55.44 bitrate=N/A speed=15.4x    frame=25984 fps=370 q=-0.0 size=N/A time=00:18:03.74 bitrate=N/A speed=15.4x    frame=26179 fps=370 q=-0.0 size=N/A time=00:18:11.88 bitrate=N/A speed=15.4x    frame=26378 fps=370 q=-0.0 size=N/A time=00:18:20.18 bitrate=N/A speed=15.4x    frame=26572 fps=370 q=-0.0 size=N/A time=00:18:28.27 bitrate=N/A speed=15.4x    frame=26762 fps=370 q=-0.0 size=N/A time=00:18:36.19 bitrate=N/A speed=15.4x    frame=26952 fps=370 q=-0.0 size=N/A time=00:18:44.12 bitrate=N/A speed=15.4x    frame=27133 fps=370 q=-0.0 size=N/A time=00:18:51.67 bitrate=N/A speed=15.4x    frame=27322 fps=370 q=-0.0 size=N/A time=00:18:59.55 bitrate=N/A speed=15.4x    frame=27499 fps=370 q=-0.0 size=N/A time=00:19:06.93 bitrate=N/A speed=15.4x    frame=27698 fps=370 q=-0.0 size=N/A time=00:19:15.23 bitrate=N/A speed=15.4x    frame=27889 fps=370 q=-0.0 size=N/A time=00:19:23.20 bitrate=N/A speed=15.4x    frame=28078 fps=370 q=-0.0 size=N/A time=00:19:31.08 bitrate=N/A speed=15.4x    frame=28274 fps=370 q=-0.0 size=N/A time=00:19:39.26 bitrate=N/A speed=15.4x    frame=28462 fps=370 q=-0.0 size=N/A time=00:19:47.10 bitrate=N/A speed=15.4x    frame=28655 fps=370 q=-0.0 size=N/A time=00:19:55.15 bitrate=N/A speed=15.4x    frame=28835 fps=370 q=-0.0 size=N/A time=00:20:02.65 bitrate=N/A speed=15.4x    frame=29010 fps=370 q=-0.0 size=N/A time=00:20:09.95 bitrate=N/A speed=15.4x    frame=29186 fps=370 q=-0.0 size=N/A time=00:20:17.29 bitrate=N/A speed=15.4x    frame=29371 fps=370 q=-0.0 size=N/A time=00:20:25.01 bitrate=N/A speed=15.4x    frame=29548 fps=369 q=-0.0 size=N/A time=00:20:32.39 bitrate=N/A speed=15.4x    frame=29730 fps=369 q=-0.0 size=N/A time=00:20:39.98 bitrate=N/A speed=15.4x    frame=29907 fps=369 q=-0.0 size=N/A time=00:20:47.37 bitrate=N/A speed=15.4x    frame=30072 fps=369 q=-0.0 size=N/A time=00:20:54.25 bitrate=N/A speed=15.4x    frame=30256 fps=369 q=-0.0 size=N/A time=00:21:01.92 bitrate=N/A speed=15.4x    frame=30450 fps=369 q=-0.0 size=N/A time=00:21:10.01 bitrate=N/A speed=15.4x    frame=30643 fps=369 q=-0.0 size=N/A time=00:21:18.06 bitrate=N/A speed=15.4x    frame=30836 fps=369 q=-0.0 size=N/A time=00:21:26.11 bitrate=N/A speed=15.4x    frame=31030 fps=369 q=-0.0 size=N/A time=00:21:34.20 bitrate=N/A speed=15.4x    frame=31218 fps=369 q=-0.0 size=N/A time=00:21:42.05 bitrate=N/A speed=15.4x    frame=31412 fps=369 q=-0.0 size=N/A time=00:21:50.14 bitrate=N/A speed=15.4x    frame=31603 fps=369 q=-0.0 size=N/A time=00:21:58.10 bitrate=N/A speed=15.4x    frame=31790 fps=369 q=-0.0 size=N/A time=00:22:05.90 bitrate=N/A speed=15.4x    frame=31968 fps=369 q=-0.0 size=N/A time=00:22:13.33 bitrate=N/A speed=15.4x    frame=32167 fps=369 q=-0.0 size=N/A time=00:22:21.63 bitrate=N/A speed=15.4x    frame=32364 fps=369 q=-0.0 size=N/A time=00:22:29.84 bitrate=N/A speed=15.4x    frame=32557 fps=369 q=-0.0 size=N/A time=00:22:37.89 bitrate=N/A speed=15.4x    frame=32712 fps=369 q=-0.0 size=N/A time=00:22:44.36 bitrate=N/A speed=15.4x    frame=32878 fps=368 q=-0.0 size=N/A time=00:22:51.28 bitrate=N/A speed=15.4x    frame=33071 fps=368 q=-0.0 size=N/A time=00:22:59.33 bitrate=N/A speed=15.4x    frame=33255 fps=368 q=-0.0 size=N/A time=00:23:07.01 bitrate=N/A speed=15.4x    frame=33430 fps=368 q=-0.0 size=N/A time=00:23:14.30 bitrate=N/A speed=15.4x    frame=33584 fps=368 q=-0.0 size=N/A time=00:23:20.73 bitrate=N/A speed=15.3x    frame=33740 fps=367 q=-0.0 size=N/A time=00:23:27.23 bitrate=N/A speed=15.3x    frame=33862 fps=367 q=-0.0 size=N/A time=00:23:32.32 bitrate=N/A speed=15.3x    frame=34020 fps=366 q=-0.0 size=N/A time=00:23:38.91 bitrate=N/A speed=15.3x    frame=34186 fps=366 q=-0.0 size=N/A time=00:23:45.84 bitrate=N/A speed=15.3x    frame=34328 fps=365 q=-0.0 size=N/A time=00:23:51.76 bitrate=N/A speed=15.2x    frame=34466 fps=365 q=-0.0 size=N/A time=00:23:57.51 bitrate=N/A speed=15.2x    frame=34650 fps=365 q=-0.0 size=N/A time=00:24:05.19 bitrate=N/A speed=15.2x    [Parsed_psnr_16 @ 0000025aada428c0] PSNR y:48.941771 u:50.317101 v:50.368786 average:49.360509 min:37.799521 max:inf
[out#0/null @ 0000025aa5f0ce40] video:14903KiB audio:271276KiB subtitle:0KiB other streams:0KiB global headers:0KiB muxing overhead: unknown
frame=34683 fps=365 q=-0.0 Lsize=N/A time=00:24:06.57 bitrate=N/A speed=15.2x    
